<svg width="15" height="9" viewBox="0 0 15 9" fill="none" xmlns="http://www.w3.org/2000/svg">
<path d="M14.7125 1.77886C14.8985 1.58513 15 1.33855 15 1.04795C15 0.466732 14.5603 0 14.0023 0C13.7232 0 13.4696 0.123288 13.2751 0.325831L7.49154 6.49022L1.72492 0.325831C1.53044 0.123288 1.26832 0 0.997745 0C0.439684 0 0 0.466732 0 1.04795C0 1.33855 0.101466 1.58513 0.287486 1.77886L6.71364 8.63014C6.93348 8.87671 7.20406 8.99119 7.5 9C7.79594 9 8.04961 8.87671 8.2779 8.63014L14.7125 1.77886Z" fill="black"/>
</svg>
